<svg xmlns="http://www.w3.org/2000/svg" fill="none" viewBox="0 0 20 20" class="relative z-10 -mx-1.5 size-5 shrink-0"><path fill="#4285F4" d="M10.153 8.636v2.905h4.119c-.181.934-.724 1.725-1.538 2.257l2.484 1.889c1.447-1.31 2.282-3.232 2.282-5.516a8.4 8.4 0 0 0-.14-1.534z"></path><path fill="#FBBC05" d="M3.321 6.639a7.29 7.29 0 0 0 0 6.722c0 .007 2.546-1.936 2.546-1.936A4.4 4.4 0 0 1 5.624 10c0-.498.09-.975.243-1.425z"></path><path fill="#EA4335" d="M10.153 5.486c1.127 0 2.129.382 2.929 1.119l2.192-2.148C13.944 3.243 12.219 2.5 10.153 2.5a7.66 7.66 0 0 0-6.832 4.139l2.546 1.936c.606-1.773 2.296-3.089 4.286-3.089"></path><path fill="#34A853" d="m5.864 11.428-.56.42L3.32 13.36a7.67 7.67 0 0 0 6.832 4.14c2.066 0 3.798-.67 5.065-1.815l-2.484-1.888c-.682.45-1.552.723-2.581.723-1.99 0-3.68-1.316-4.286-3.09l-.003-.003Z"></path></svg>