<svg xmlns="http://www.w3.org/2000/svg" fill="none" viewBox="0 0 32 32" class="relative z-10 -mx-1.5 size-5 shrink-0"><path fill="#0077B5" fill-rule="evenodd" d="M25.333 4H6.667A2.666 2.666 0 0 0 4 6.667v18.666A2.666 2.666 0 0 0 6.667 28h18.666A2.666 2.666 0 0 0 28 25.333V6.667A2.666 2.666 0 0 0 25.333 4M11.257 24.667h-3.58V13.11h3.58zM9.45 11.597a2.123 2.123 0 0 1-2.117-2.134c0-1.18.947-2.133 2.117-2.133s2.117.953 2.117 2.133-.947 2.134-2.117 2.134m15.217 13.07h-3.56V18.6c0-1.663-.634-2.593-1.947-2.593-1.433 0-2.18.966-2.18 2.593v6.067h-3.433V13.11h3.433v1.557s1.033-1.91 3.483-1.91 4.207 1.496 4.207 4.593v7.317z" clip-rule="evenodd"></path></svg>
